<?xml version="1.0" standalone="no"?> <!DOCTYPE svg PUBLIC "-//W3C//DTD SVG 1.0//EN" "http://www.w3.org/TR/2001/REC-SVG-20010904/DTD/svg10.dtd" > <svg xmlns="http://www.w3.org/2000/svg" width="100%" height="100%">
<defs >
<font id="otamasemibold" horiz-adv-x="445" ><font-face
    font-family="Otama-SemiBold"
    units-per-em="1000"
    panose-1="2 0 7 3 0 0 0 2 0 3"
    ascent="750"
    descent="-250"
    alphabetic="0" />
<missing-glyph horiz-adv-x="226" />
<glyph unicode=" " glyph-name="space" horiz-adv-x="226" />
<glyph unicode="!" glyph-name="exclam" horiz-adv-x="307" d="M166 190H140Q137 241 116 399T95 604Q95 635 110 654T155 674Q182 674 197 655T213 605Q213 556 191 398T166 190ZM89 24T89 51T108 96T153 115Q180 115 198 96T216 51T198 7T153 -12T108 6Z" />
<glyph unicode="&quot;" glyph-name="quotedbl" horiz-adv-x="262" d="M78 463H57Q54 491 42 560T29 659Q29 678 39 690T68 702Q87 702 97 690T108 659Q108 629 95 561T78 463ZM204 463H182Q179 490 167 560T154 660Q154 679 164 690T193 702Q212 702 222 691T233
660Q233 631 220 563T204 463Z" />
<glyph unicode="#" glyph-name="numbersign" horiz-adv-x="545" d="M398 454L461 665H488L425 454H518L511 428H417L365 253H459L452 227H357L290 0H262L330 227H170L103 0H76L144 227H27L36 253H152L204 428H86L94 454H212L275 665H302L239 454H398ZM231 428L178
253H338L390 428H231Z" />
<glyph unicode="$" glyph-name="dollar" horiz-adv-x="548" d="M59 120Q59 149 78 170T126 191T174 172T195 123Q195 95 175 75T126 55H122Q161 12 252 11V299Q146 348 103 387T60 495Q60 576 116 625T252 681V736H285V682Q361 680 418 641T475 541Q475 513 456
493T407 472Q380 472 360 491T340 538Q340 573 365 592T418 607Q373 656 285 657V408Q398 359 446 312T495 177Q495 130 476 93T426 35T359 1T285 -14V-67H252V-15Q161 -12 110 29T59 120ZM404 136Q404 224 285 284V13Q344 20 374 54T404 136ZM148 545Q148 504
173 476T252 423V655Q202 647 175 616T148 545Z" />
<glyph unicode="%" glyph-name="percent" horiz-adv-x="568" d="M57 63L498 620L518 605L78 46L57 63ZM305 521Q305 453 270 409T165 365Q97 365 63 407T29 516Q29 579 66 622T168 665Q231 665 268 625T305 521ZM168 639Q111 639 111 522Q111 457 123 424T169
391Q199 391 210 424T222 522Q222 583 210 611T168 639ZM533 156Q533 88 498 44T393 0Q324 0 291 42T257 151Q257 215 294 257T396 300Q458 300 495 260T533 156ZM426 274T396 274T353 246T339 157Q339 91 351 59T397 26Q427 26 438 59T450 157Q450 219 438 246Z"
/>
<glyph unicode="&amp;" glyph-name="ampersand" horiz-adv-x="631" d="M484 255Q492 287 492 344Q492 386 472 405T409 424V448H585V424Q517 424 517 349Q517 268 505 228Q526 203 537 187T559 144T569 92Q569 50 540 17T469 -29L458 -8Q488 10 488 43Q488 79
457 116Q428 59 377 28T266 -4Q173 -4 114 54T54 199Q54 337 213 431Q176 493 176 544Q176 604 215 640T311 677Q352 677 379 653T407 588Q407 515 319 457Q329 444 390 372T484 255ZM227 404Q147 343 147 264T197 128T318 70Q355 70 388 91T436 142Q427 153 374
215T287 322T227 404ZM304 478Q379 528 379 587Q379 616 360 633T318 650Q288 650 271 633T254 589Q254 545 304 478Z" />
<glyph unicode="&apos;" glyph-name="quotesingle" horiz-adv-x="137" d="M78 463H57Q54 488 42 559T29 660Q29 679 39 690T68 702T97 690T108 660Q108 630 95 560T78 463Z" />
<glyph unicode="(" glyph-name="parenleft" horiz-adv-x="181" d="M188 766L208 753Q140 647 106 542T72 305Q72 48 204 -161L184 -173Q102 -84 56 41T10 305Q10 569 188 766Z" />
<glyph unicode=")" glyph-name="parenright" horiz-adv-x="181" d="M-27 753L-7 766Q171 569 171 305Q171 167 125 42T-3 -173L-23 -161Q110 49 110 305Q110 437 76 542T-27 753Z" />
<glyph unicode="*" glyph-name="asterisk" horiz-adv-x="589" d="M302 357H284Q282 380 269 452T255 555Q255 574 266 585T294 596Q312 596 323 585T334 555Q334 525 319 453T302 357ZM262 343L257 325Q243 328 166 337T59 357Q41 362 34 375T32 407Q44 444 80
432Q110 422 177 387T262 343ZM264 299L281 288Q271 271 238 203T187 110Q177 95 161 93T132 102Q100 124 123 156Q141 181 196 232T264 299ZM328 343Q348 352 413 387T507 432Q524 437 538 431T557 407Q564 389 557 376T531 357Q502 347 429 339T332 325L328 343ZM325
299Q339 284 393 233T466 158Q477 144 475 128T457 102Q426 78 403 110Q384 135 351 205T309 288L325 299Z" />
<glyph unicode="+" glyph-name="plus" horiz-adv-x="483" d="M254 254H454V229H254V29H227V229H29V254H227V454H254V254Z" />
<glyph unicode="," glyph-name="comma" horiz-adv-x="190" d="M97 127Q125 127 147 107T169 52Q169 4 141 -28T67 -74L58 -52Q118 -32 134 12Q120 0 96 0Q70 0 51 18T31 65Q31 91 50 109T97 127Z" />
<glyph unicode="-" glyph-name="hyphen" horiz-adv-x="269" d="M29 234V302H231V234H29Z" />
<glyph unicode="." glyph-name="period" horiz-adv-x="176" d="M29 33T29 61T48 108T95 127Q122 127 141 108T160 61Q160 34 141 15T95 -4Q67 -4 48 14Z" />
<glyph unicode="/" glyph-name="slash" horiz-adv-x="263" d="M29 0L228 669L253 662L53 -7L29 0Z" />
<glyph unicode="0" glyph-name="zero" horiz-adv-x="575" d="M527 333Q527 260 514 200T473 91T398 15T286 -12Q220 -12 172 17T98 97T60 206T48 333Q48 403 61 463T102 572T177 649T288 677T399 648T474 568T514 458T527 333ZM287 652Q168 652 168 333Q168 163
195 88T286 13Q353 13 380 89T407 333Q407 404 402 458T383 558T346 628T287 652Z" />
<glyph unicode="1" glyph-name="one" horiz-adv-x="317" d="M110 554L48 553V576Q89 583 133 618T197 695H222V25H283V0H49V25H110V554Z" />
<glyph unicode="2" glyph-name="two" horiz-adv-x="511" d="M66 535Q66 592 115 633T252 674Q337 674 397 624T457 486Q457 425 425 378T343 300T242 240T146 174T87 92Q106 121 175 121Q211 121 274 103T361 85Q395 85 407 100T418 134L436 140Q457 119 457 77Q457
33 431 9T354 -15Q317 -15 254 4T146 23Q92 23 78 0H54Q51 15 51 34Q51 82 72 125T125 199T194 264T263 329T316 403T337 494Q337 565 300 602T209 639Q138 639 108 588Q118 591 129 591Q157 591 176 572T196 525Q196 499 177 481T130 463Q102 463 84 481T66 535Z"
/>
<glyph unicode="3" glyph-name="three" horiz-adv-x="493" d="M185 18Q249 18 285 66T321 198Q321 284 269 329T127 373V401Q197 403 244 437T291 532Q291 581 264 605T192 630Q154 630 123 610T74 557L52 567Q69 607 118 641T241 676T360 639T405 544Q405 492
364 452T237 396V391Q328 382 384 333T440 195Q440 96 377 42T211 -12Q137 -12 84 24T31 119Q31 150 49 170T95 190Q123 190 142 171T161 123Q161 97 142 78T95 59Q86 59 81 60Q118 18 185 18Z" />
<glyph unicode="4" glyph-name="four" horiz-adv-x="476" d="M9 210V231L302 665H357V235H458V210H357V24H417V0H178V25H246V210H9ZM42 235H246V538L42 235Z" />
<glyph unicode="5" glyph-name="five" horiz-adv-x="491" d="M35 116Q35 148 53 168T99 188T146 169T166 123T147 77T99 58Q93 58 85 60Q120 18 188 18Q250 18 287 67T325 222Q325 416 200 416Q141 416 94 378L72 388L87 665Q173 650 263 650Q367 650 380 676H403Q413
559 239 559Q169 559 108 572L98 410Q118 425 154 438T229 452Q320 452 381 395T443 228Q443 162 424 113T370 38T298 0T216 -13Q142 -13 89 23T35 116Z" />
<glyph unicode="6" glyph-name="six" horiz-adv-x="568" d="M355 555Q355 583 374 602T419 621Q426 621 429 620Q398 648 353 648Q293 648 254 604T200 496T184 351Q207 380 246 397T328 414Q407 414 461 361T515 214Q515 111 457 50T294 -11Q174 -11 118 74T62
309Q62 472 138 573T342 675Q395 675 439 643T484 562Q484 530 466 511T420 492Q393 492 374 510T355 555ZM183 307Q181 272 181 242Q181 127 212 71T293 14Q347 14 373 66T400 210Q400 283 371 328T290 374Q256 374 225 354T183 307Z" />
<glyph unicode="7" glyph-name="seven" horiz-adv-x="436" d="M33 478L31 665H408V644L218 24H290V0H44V24H105L295 639H253Q156 639 113 608T59 478H33Z" />
<glyph unicode="8" glyph-name="eight" horiz-adv-x="543" d="M450 551Q450 499 415 460T335 396Q416 345 455 292T494 168Q494 81 428 33T268 -15Q169 -15 109 27T49 157Q49 221 93 271T193 347Q136 387 109 427T81 517Q81 599 135 641T273 684Q345 684 397 649T450
551ZM270 659Q226 659 199 635T171 570Q171 531 202 496T310 414Q340 431 358 467T377 547Q377 599 349 629T270 659ZM139 154Q139 81 175 46T270 10Q328 10 360 44T392 128Q392 177 354 221T223 325Q139 270 139 154Z" />
<glyph unicode="9" glyph-name="nine" horiz-adv-x="570" d="M213 110Q213 82 194 63T149 43H139Q170 16 216 16Q275 16 313 59T366 166T383 313Q361 284 321 268T239 251Q159 251 106 305T53 451Q53 556 112 616T273 676Q325 676 365 659T431 613T474 543T498
457T505 358Q505 196 431 93T227 -11Q171 -11 127 21T83 100Q83 134 101 153T149 173Q176 173 194 155T213 110ZM385 357Q386 378 386 424Q386 538 355 594T275 651Q168 651 168 456Q168 383 196 337T277 291Q310 291 341 310T385 357Z" />
<glyph unicode=":" glyph-name="colon" horiz-adv-x="184" d="M27 91Q27 119 46 138T92 157T138 138T158 91Q158 64 139 45T92 26T46 45T27 91ZM26 387Q26 414 45 433T92 452Q118 452 137 433T157 387T138 341T92 321Q64 321 45 340T26 387Z" />
<glyph unicode=";" glyph-name="semicolon" horiz-adv-x="188" d="M29 387Q29 414 48 433T94 452Q122 452 141 433T160 387T141 341T94 321Q67 321 48 340T29 387ZM94 157Q122 157 144 137T166 82Q166 34 137 2T63 -44L55 -22Q117 -1 130 42Q116 30 92 30Q66 30
47 48T28 95Q28 121 47 139T94 157Z" />
<glyph unicode="&lt;" glyph-name="less" horiz-adv-x="547" d="M504 4V-23L29 216V231L504 469V442L71 224L504 4Z" />
<glyph unicode="=" glyph-name="equal" horiz-adv-x="483" d="M454 327V302H29V327H454ZM454 165V139H29V165H454Z" />
<glyph unicode="&gt;" glyph-name="greater" horiz-adv-x="533" d="M29 -23V4L462 224L29 442V469L504 231V216L29 -23Z" />
<glyph unicode="?" glyph-name="question" horiz-adv-x="442" d="M38 534Q38 594 89 635T218 676Q294 676 349 637T404 526Q404 484 387 450T344 395T289 351T234 307T193 253T179 177L158 175Q151 202 151 227Q151 271 173 310T221 375T269 442T291 529Q291 580
260 611T180 643Q147 643 120 628T79 589Q91 593 102 593Q129 593 148 574T168 527Q168 501 150 483T104 465T58 485T38 534ZM115 24T115 50T133 95T179 114Q205 114 224 96T243 51T224 6T179 -13T134 5Z" />
<glyph unicode="@" glyph-name="at" horiz-adv-x="751" d="M515 149Q471 149 446 176T421 238Q365 153 272 153Q218 153 187 191T155 288Q155 384 226 463T386 542Q426 542 451 524T483 474Q487 489 508 530H621Q534 345 534 248Q534 195 569 195Q611 195 655
257T700 405Q700 515 608 587T400 659Q258 659 158 563T57 326Q57 184 156 95T402 5Q447 5 494 15T568 42L581 21Q517 -20 401 -20Q301 -20 217 21T81 143T29 325Q29 476 137 580T398 684Q527 684 627 606T727 405Q727 342 703 285T628 188T515 149ZM464 442Q464
471 449 489T413 508Q361 508 311 428T260 254Q260 189 310 189T412 268T464 442Z" />
<glyph unicode="A" glyph-name="A" horiz-adv-x="695" d="M368 679L622 25H683V0H447V25H503L417 247H187L91 25H147V0H12V25H63L351 679H368ZM406 273L309 526L200 273H406Z" />
<glyph unicode="B" glyph-name="B" horiz-adv-x="634" d="M42 640V665H156Q178 665 218 667T287 670Q524 670 524 517Q524 451 474 414T335 368V362Q442 357 511 314T580 182Q580 -5 305 -5Q271 -5 224 -3T157 0H42V25H104V640H42ZM214 345V25Q247 21 283 21Q372
21 417 58T462 181Q462 275 410 310T257 346Q229 346 214 345ZM214 640V377Q225 376 243 376Q410 376 410 518Q410 643 267 643Q241 643 214 640Z" />
<glyph unicode="C" glyph-name="C" horiz-adv-x="669" d="M55 316Q55 483 151 582T402 681Q510 681 619 625L616 445H590Q579 552 536 603T402 655Q341 655 296 625T225 544T189 435T177 312Q177 165 231 88T390 11Q489 11 531 74T583 256H608L612 44Q520 -15
389 -15Q233 -15 144 75T55 316Z" />
<glyph unicode="D" glyph-name="D" horiz-adv-x="707" d="M46 640V665H183Q210 665 237 666T271 668Q350 668 417 649T538 592T621 491T652 344Q652 251 624 182T544 74T426 15T278 -4Q263 -4 223 -2T145 0H46V25H108V640H46ZM219 640V24Q249 22 264 22Q325 22
370 37T451 86T507 183T526 336Q526 428 505 491T445 585T363 629T263 642Q245 642 219 640Z" />
<glyph unicode="E" glyph-name="E" horiz-adv-x="588" d="M538 0H46V25H108V640H46V665H529L526 455H501Q490 563 442 601T285 639H219V364Q258 365 283 367Q326 371 352 403T381 485H407V219H381Q377 269 351 300T285 336L219 339V26H290Q339 26 373 33T439 60T489
120T511 223H535L538 0Z" />
<glyph unicode="F" glyph-name="F" horiz-adv-x="544" d="M296 27V0H46V25H108V640H46V665H510L507 462H482Q470 567 422 603T275 639H219V364Q247 365 269 367Q313 371 338 403T367 485H391V219H367Q362 271 336 301T271 336L219 339V27H296Z" />
<glyph unicode="G" glyph-name="G" horiz-adv-x="706" d="M440 256H692V231H630V63Q577 23 512 4T388 -15Q237 -15 146 74T54 316Q54 484 152 582T400 681Q510 681 613 625L610 449H584Q576 549 533 602T399 655Q336 655 290 622T220 534T187 425T177 313Q177
174 229 93T394 11Q436 11 467 26T508 70Q519 102 519 169L517 231H440V256Z" />
<glyph unicode="H" glyph-name="H" horiz-adv-x="713" d="M46 640V665H278V640H219V348H494V640H435V665H667V640H605V25H667V0H436V25H494V323H219V25H278V0H46V25H108V640H46Z" />
<glyph unicode="I" glyph-name="I" horiz-adv-x="327" d="M219 640V25H281V0H46V25H108V640H46V665H281V640H219Z" />
<glyph unicode="J" glyph-name="J" horiz-adv-x="436" d="M11 92Q11 121 29 140T75 159Q103 159 122 141T141 94Q141 68 122 49T74 30Q93 14 123 14Q158 14 184 35T220 91Q230 123 230 208V640H158V665H397V640H341V276Q341 184 331 135Q302 -13 142 -13Q88 -13
50 17T11 92Z" />
<glyph unicode="K" glyph-name="K" horiz-adv-x="707" d="M219 639V25H278V0H46V25H108V640H46V665H279V639H219ZM221 355L498 639H443V665H588V639H533L315 414L607 25H667V0H416V25H471L221 353V355Z" />
<glyph unicode="L" glyph-name="L" horiz-adv-x="548" d="M219 640V26H249Q300 26 323 29Q396 39 434 85T478 224H503L506 0H46V26H108V640H46V665H290V640H219Z" />
<glyph unicode="M" glyph-name="M" horiz-adv-x="824" d="M16 25H78V640H16V665H216L399 169L585 665H778V640H716V25H778V0H542V25H604V641H603L361 -10H345L106 641H105V25H165V0H16V25Z" />
<glyph unicode="N" glyph-name="N" horiz-adv-x="580" d="M9 665H203L472 217V640H415V665H561V640H499V-4H480L98 620H97V25H154V0H9V25H71V640H9V665Z" />
<glyph unicode="O" glyph-name="O" horiz-adv-x="791" d="M55 319Q55 486 151 583T404 681Q564 681 650 581T736 329Q736 245 707 178T629 70T517 7T384 -15Q237 -15 146 76T55 319ZM612 316Q612 479 559 567T396 656Q330 656 285 624T218 538T188 430T179 316Q179
169 236 90T393 10Q454 10 498 36T566 108T601 205T612 316Z" />
<glyph unicode="P" glyph-name="P" horiz-adv-x="596" d="M282 25V0H46V25H108V639H46V665H164Q184 665 230 667T298 669Q400 669 471 613T543 462Q543 354 474 296T298 237Q264 237 220 244V25H282ZM220 641V270Q244 266 264 266Q345 266 385 319T425 463Q425
546 383 595T257 644Q239 644 220 641Z" />
<glyph unicode="Q" glyph-name="Q" horiz-adv-x="791" d="M341 -9V-7Q216 -1 135 89T54 319Q54 490 152 585T403 681Q562 681 648 583T735 329Q735 222 688 141T551 20Q513 3 410 -16T253 -64L254 -65Q274 -58 300 -58Q334 -58 370 -75T432 -114T488 -153T545
-171Q561 -171 573 -166T592 -155T603 -140T609 -127T610 -120L634 -122Q637 -174 605 -220T508 -267Q465 -267 421 -242T347 -187T284 -132T228 -107Q193 -107 175 -127Q160 -115 156 -112Q186 -71 236 -45T341 -9ZM611 316Q611 478 558 567T395 656Q331 656 286
625T218 540T187 432T178 316Q178 170 235 90T392 10Q453 10 497 37T565 110T600 207T611 316Z" />
<glyph unicode="R" glyph-name="R" horiz-adv-x="650" d="M219 315V25H281V0H46V25H108V639H46V665H164Q186 665 231 667T306 670Q368 670 419 655T507 600T543 502Q543 419 481 379T318 334V329Q413 324 462 288Q518 248 534 131Q540 84 548 63T577 41Q600 41
607 66L628 62Q625 34 601 11T533 -13Q499 -13 475 2T438 48T419 104T408 171Q397 262 361 288T219 315ZM219 641V344Q325 346 375 380T426 506Q426 581 384 612T262 644Q255 644 219 641Z" />
<glyph unicode="S" glyph-name="S" horiz-adv-x="541" d="M455 625L453 448H428Q422 542 382 598T267 655Q212 655 180 627T147 551Q147 483 226 441Q248 429 287 412T354 379T405 347Q485 285 485 189Q485 92 421 39T260 -15Q208 -15 152 1T63 40L58 256H85Q87
211 97 171T126 93T179 33T260 11Q315 11 354 46T393 134Q393 201 329 249Q297 273 231 304T152 344Q59 398 59 492Q59 574 118 627T259 681Q348 681 455 625Z" />
<glyph unicode="T" glyph-name="T" horiz-adv-x="605" d="M249 25V639Q148 639 107 607T54 474H29L26 665H579L576 474H550Q538 576 498 607T360 639V25H421V0H187V25H249Z" />
<glyph unicode="U" glyph-name="U" horiz-adv-x="653" d="M36 640V665H271V640H210V473Q210 383 212 215Q214 20 375 20Q547 20 547 268V640H480V665H631V640H574V277Q574 115 517 52T352 -12Q245 -12 179 45T104 212Q98 296 98 473V640H36Z" />
<glyph unicode="V" glyph-name="V" horiz-adv-x="653" d="M371 153L567 640H510V665H643V640H594L334 -10H315L72 640H10V665H248V640H191L371 153Z" />
<glyph unicode="W" glyph-name="W" horiz-adv-x="941" d="M660 153L856 640H799V665H932V640H883L623 -10H604L473 339L334 -10H315L72 640H10V665H240V640H191L371 153L460 374L361 640H309V665H537V640H480L660 153Z" />
<glyph unicode="X" glyph-name="X" horiz-adv-x="648" d="M18 640V665H265V639H208L342 411L496 640H443V665H577V640H526L356 388L569 26H630V0H383V25H440L284 290L106 25H159V0H24V25H75L270 314L79 640H18Z" />
<glyph unicode="Y" glyph-name="Y" horiz-adv-x="619" d="M609 665V640H558L375 337V25H437V0H202V25H264V316L74 640H10V665H260V640H204L365 369L529 640H475V665H609Z" />
<glyph unicode="Z" glyph-name="Z" horiz-adv-x="602" d="M69 461L67 665H540V645L190 26H246Q341 26 367 31Q439 44 473 90T515 229H541L544 0H60V21L409 639H327Q256 639 224 634Q166 623 135 583T95 461H69Z" />
<glyph unicode="[" glyph-name="bracketleft" horiz-adv-x="139" d="M29 -210V743H129V718H56V-185H129V-210H29Z" />
<glyph unicode="\" glyph-name="backslash" horiz-adv-x="271" d="M52 672L252 3L228 -4L29 665L52 672Z" />
<glyph unicode="]" glyph-name="bracketright" horiz-adv-x="139" d="M110 743V-210H10V-185H82V718H10V743H110Z" />
<glyph unicode="^" glyph-name="asciicircum" horiz-adv-x="416" d="M208 658L51 330L29 342L201 701H215L387 342L364 330L208 658Z" />
<glyph unicode="_" glyph-name="underscore" horiz-adv-x="520" d="M29 -71V-44H491V-71H29Z" />
<glyph unicode="`" glyph-name="grave" horiz-adv-x="231" d="M204 517L188 502Q170 520 115 567T39 637Q15 667 44 693Q74 718 101 688Q121 664 156 600T204 517Z" />
<glyph unicode="a" glyph-name="a" horiz-adv-x="497" d="M68 343Q68 390 112 425T228 460Q299 460 346 428T403 337Q409 307 409 194V90Q409 58 415 46T436 33Q456 33 463 59L485 54Q481 27 462 8T406 -11T346 5T314 49Q299 23 263 6T186 -11Q122 -11 81 17T39
102Q39 173 113 211T307 256V297Q307 343 300 367Q292 397 266 414T203 431Q147 431 117 396Q121 397 126 397Q152 397 170 379T188 335T171 294T127 278Q102 278 85 296T68 343ZM180 25T214 25T277 46T308 92Q308 95 308 115T307 148V230Q230 225 188 194T145
105Q145 69 162 47Z" />
<glyph unicode="b" glyph-name="b" horiz-adv-x="586" d="M200 294V171Q200 116 234 75T310 34Q362 34 395 77T429 220Q429 416 311 416Q269 416 235 377T200 294ZM200 702V374Q214 407 254 433T340 460Q376 460 410 448T474 409T523 335T542 226Q542 106 486
48T346 -11Q292 -11 251 17T197 82L179 0H35V25H98V677H36V702H200Z" />
<glyph unicode="c" glyph-name="c" horiz-adv-x="488" d="M310 325Q310 351 327 368T370 386Q379 386 388 383Q360 429 301 429Q241 429 199 378T157 235Q157 150 196 96T299 42Q346 42 380 71T426 142L451 137Q445 83 394 35T262 -13Q170 -13 109 48T48 225Q48
332 116 398T274 464Q346 464 389 424T432 334Q432 304 415 285T370 266Q344 266 327 283T310 325Z" />
<glyph unicode="d" glyph-name="d" horiz-adv-x="586" d="M390 168V294Q390 340 356 378T280 416Q223 416 192 368T160 221Q160 120 195 77T281 34Q322 34 356 75T390 168ZM390 374V677H317V702H492V25H554V0H411L393 82Q380 45 339 17T244 -11Q160 -11 104 48T48
226T109 402T250 460Q296 460 336 433T390 374Z" />
<glyph unicode="e" glyph-name="e" horiz-adv-x="493" d="M265 438Q224 438 192 400T157 272H220Q289 274 316 288T343 345Q343 385 323 411T265 438ZM427 144L452 139Q442 78 390 33T261 -13Q163 -13 106 52T48 225Q48 331 112 398T269 465Q339 465 391 428T444
335Q444 281 397 264T220 244L157 243Q152 167 189 106T296 44Q343 44 378 73T427 144Z" />
<glyph unicode="f" glyph-name="f" horiz-adv-x="328" d="M276 592Q276 618 293 636T336 654Q344 654 352 652Q328 681 288 681Q217 681 198 595Q192 566 192 502Q192 475 193 448H262V420H193V25H254V0H29V25H91V420H9V448H91Q91 537 104 584Q142 712 272 712Q325
712 361 679T397 600Q397 571 380 552T336 533Q311 533 294 550T276 592Z" />
<glyph unicode="g" glyph-name="g" horiz-adv-x="499" d="M248 144Q181 144 139 163Q110 153 110 129Q110 107 139 95T249 73Q354 60 407 26T460 -88Q460 -165 395 -212T234 -259Q202 -259 172 -253T115 -233T72 -193T56 -133Q56 -94 84 -63T155 -19Q114 -12 83
12T51 79Q51 113 68 139T113 178Q50 220 50 303Q50 376 106 420T248 465Q323 465 377 425Q392 431 407 446T428 475Q418 467 402 467Q379 467 362 482T345 521Q345 544 360 560T400 576Q423 576 442 560T462 511Q462 449 397 407Q439 365 439 303Q439 234 387 189T248
144ZM203 -22Q178 -25 160 -54T141 -117Q141 -169 171 -199T264 -230Q317 -230 357 -202T398 -130Q398 -83 357 -57T203 -22ZM333 232T333 304T308 407T245 439T182 407T157 303Q157 233 181 202T244 171T307 201Z" />
<glyph unicode="h" glyph-name="h" horiz-adv-x="601" d="M98 25V677H36V702H200V371Q212 400 253 428T351 456Q419 456 461 418T508 296Q510 262 510 176V25H572V0H357V25H408V184Q408 249 407 280Q405 406 307 406Q263 406 232 372T200 291V25H251V0H36V25H98Z" />
<glyph unicode="i" glyph-name="i" horiz-adv-x="298" d="M98 423H36V448H200V25H262V0H36V25H98V423ZM85 601Q85 628 103 646T148 665T193 647T212 601Q212 575 194 557T148 538Q122 538 104 556T85 601Z" />
<glyph unicode="j" glyph-name="j" horiz-adv-x="303" d="M-83 -127Q-83 -102 -66 -84T-24 -66Q2 -66 20 -83T38 -126Q38 -146 26 -162T-5 -184Q7 -188 23 -188Q74 -188 95 -135Q108 -99 108 -4V423H46V448H210V197Q210 -8 187 -83Q148 -213 23 -213Q-17 -213
-50 -191T-83 -127ZM95 601Q95 628 113 646T158 665T203 647T222 601Q222 575 204 557T158 538Q132 538 114 556T95 601Z" />
<glyph unicode="k" glyph-name="k" horiz-adv-x="555" d="M200 702V358Q218 399 264 429T364 460Q421 460 452 433T484 365Q484 315 440 284T335 247V241Q392 235 417 207T453 122Q463 69 472 49T498 28Q509 28 517 36T528 57L552 51Q547 20 523 -1T463 -23Q409
-23 383 10T347 111Q338 177 310 204T229 235V261Q291 262 339 284T387 351Q387 379 371 396T320 413Q277 413 239 371T200 285V25H251V0H36V25H98V677H36V702H200Z" />
<glyph unicode="l" glyph-name="l" horiz-adv-x="298" d="M200 702V25H261V0H36V25H98V677H36V702H200Z" />
<glyph unicode="m" glyph-name="m" horiz-adv-x="895" d="M490 374Q514 412 557 434T647 456Q794 456 803 297Q805 263 805 182V25H867V0H652V25H703V190Q703 262 702 282Q698 406 602 406Q560 406 530 377T503 326L506 293Q508 266 508 179V25H559V0H355V25H406V190Q406
262 405 282Q399 406 306 406Q264 406 232 373T200 288V25H251V0H36V25H98V423H33V448H182L198 367Q211 402 253 429T350 456Q451 456 490 374Z" />
<glyph unicode="n" glyph-name="n" horiz-adv-x="601" d="M98 25V423H36V448H182L198 367Q212 403 255 429T351 456Q421 456 462 417T508 297Q510 263 510 179V25H572V0H357V25H408V187Q408 248 407 279Q405 406 308 406Q264 406 232 373T200 290V25H251V0H36V25H98Z" />
<glyph unicode="o" glyph-name="o" horiz-adv-x="568" d="M521 234Q521 122 458 55T281 -13Q170 -13 109 51T48 227Q48 332 113 398T286 464Q391 464 456 402T521 234ZM285 437Q231 437 196 385T160 237Q160 131 193 72T286 13Q342 13 375 73T408 237Q408 334
375 385T285 437Z" />
<glyph unicode="p" glyph-name="p" horiz-adv-x="580" d="M184 448L199 372Q212 404 252 432T339 460Q375 460 408 448T469 409T515 335T532 226Q532 105 479 47T343 -11Q295 -11 255 10T200 62V-209H261V-235H36V-209H98V423H36V448H184ZM200 295V143Q200 99
231 66T307 32Q358 32 389 77T421 221Q421 416 307 416Q266 416 233 378T200 295Z" />
<glyph unicode="q" glyph-name="q" horiz-adv-x="581" d="M382 373L397 448H544V423H483V-209H544V-235H319V-209H381V62Q368 32 328 11T239 -11Q156 -11 102 47T48 226Q48 289 65 336T112 410T174 448T243 460Q287 460 327 433T382 373ZM381 148V295Q381 338
349 377T273 416Q159 416 159 221Q159 122 191 77T274 32Q318 32 349 65T381 148Z" />
<glyph unicode="r" glyph-name="r" horiz-adv-x="423" d="M280 356Q280 382 298 401T342 420Q351 420 355 419Q336 438 305 438Q262 438 231 399T200 309V25H261V0H36V25H98V423H36V448H188L198 398Q212 424 240 444T300 464Q342 464 373 437T405 363Q405 334
387 315T342 295T298 313T280 356Z" />
<glyph unicode="s" glyph-name="s" horiz-adv-x="417" d="M352 423L348 305L321 302Q303 435 203 435Q166 435 142 419T118 375Q118 343 145 324T228 288Q305 263 341 229T377 131Q377 66 328 25T209 -17Q173 -17 124 -7T48 15L44 162L71 163Q96 9 206 9Q243 9
269 31T296 88Q296 121 268 142T187 180Q114 203 78 235T41 325Q41 388 86 425T197 462Q274 462 352 423Z" />
<glyph unicode="t" glyph-name="t" horiz-adv-x="330" d="M280 52L301 40Q292 20 270 5T214 -11Q119 -11 107 79Q103 109 103 205V420H36V448H103V548Q132 548 156 567T186 612H205V448H300V420H205V131Q205 82 210 63Q217 29 245 29Q267 29 280 52Z" />
<glyph unicode="u" glyph-name="u" horiz-adv-x="601" d="M503 448V25H557V0H405Q403 81 403 82Q388 47 347 20T250 -8Q106 -8 94 150Q91 184 91 265V423H29V448H193V257Q193 226 195 164Q201 42 294 42Q339 42 370 79T401 169V423H340V448H503Z" />
<glyph unicode="v" glyph-name="v" horiz-adv-x="510" d="M18 448H245V423H189L299 139L417 423H364V448H492V423H444L262 -12H247L76 423H18V448Z" />
<glyph unicode="w" glyph-name="w" horiz-adv-x="769" d="M290 448H504V423H448L558 139L676 423H623V448H751V423H703L521 -12H506L387 289L262 -12H247L76 423H18V448H235V423H189L299 139L374 322L335 423H290V448Z" />
<glyph unicode="x" glyph-name="x" horiz-adv-x="509" d="M74 25L213 209L90 423H27V448H258V423H208L282 296L376 423H329V448H458V423H408L296 273L436 25H499V0H265V25H319L227 187L105 25H155V0H17V25H74Z" />
<glyph unicode="y" glyph-name="y" horiz-adv-x="522" d="M71 -170T71 -143T88 -98T131 -79Q158 -79 176 -96T195 -142Q195 -159 187 -167Q232 -141 268 -53Q279 -29 267 -3L84 423H23V448H250V423H196L329 112L429 423H378V448H508V423H455Q347 86 320 9Q246
-207 142 -207Q110 -207 91 -189Z" />
<glyph unicode="z" glyph-name="z" horiz-adv-x="438" d="M46 14L264 423H243Q190 423 178 421Q126 414 102 386T68 298H51L48 448H388V434L169 25H195Q239 25 257 28Q360 43 369 159H390L392 0H46V14Z" />
<glyph unicode="{" glyph-name="braceleft" horiz-adv-x="266" d="M158 219V-9Q158 -51 174 -73T217 -95V-121Q166 -121 127 -84T88 29V236Q88 290 38 290V316Q67 315 77 331T88 377V587Q88 671 123 704T217 738V713Q190 713 174 691T158 625V387Q158 303 94 303V302Q158
302 158 219Z" />
<glyph unicode="|" glyph-name="bar" horiz-adv-x="72" d="M23 -235V675H49V-235H23Z" />
<glyph unicode="}" glyph-name="braceright" horiz-adv-x="266" d="M107 -9V219Q107 302 171 302V303Q107 303 107 387V625Q107 668 91 690T48 713V738Q178 738 178 587V377Q178 347 188 331T227 316V290Q178 290 178 236V29Q178 -47 139 -84T48 -121V-95Q75 -95
91 -73T107 -9Z" />
<glyph unicode="~" glyph-name="asciitilde" horiz-adv-x="532" d="M36 176Q28 195 28 222Q28 270 60 300T152 330Q204 330 294 293T420 255Q444 255 457 268T471 303L470 323L492 325Q501 304 501 279Q501 232 470 201T382 169Q330 169 239 206T109 244Q85 244
72 232T58 197L59 178Q40 176 36 176Z" />
</font>
</defs>
</svg>
